<?xml version="1.0" encoding="utf-8"?>
<!-- Generator: Adobe Illustrator 21.0.0, SVG Export Plug-In . SVG Version: 6.00 Build 0)  -->
<svg version="1.1" id="圖層_1" xmlns="http://www.w3.org/2000/svg" xmlns:xlink="http://www.w3.org/1999/xlink" x="0px" y="0px"
	 viewBox="0 0 37.3 41" style="enable-background:new 0 0 37.3 41;" xml:space="preserve">
<style type="text/css">
	.st0{fill:#242424;}
	.st1{display:none;}
</style>
<g id="參考圖">
</g>
<g id="info">
</g>
<g id="work">
</g>
<g id="social">
</g>
<g id="logo">
	<g>
		<polygon class="st0" points="16.8,0 11.2,0 5.6,0 0,0 0,7.5 5.6,7.5 11.2,7.5 16.8,7.5 22.4,7.5 22.4,0 		"/>
		<polygon class="st0" points="29.8,33.5 22.4,33.5 14.9,33.5 7.5,33.5 7.5,41 14.9,41 22.4,41 29.8,41 37.3,41 37.3,33.5 		"/>
		<path class="st0" d="M22.4,33.5h-7.5h-3.7H7.5V41h3.7c5.5,0,10.3-3,12.9-7.5H22.4z"/>
		<path class="st0" d="M14.9,18.6v7.5c0,4.1-3.3,7.5-7.5,7.5V41c8.2,0,14.9-6.7,14.9-14.9v-7.5H14.9z"/>
	</g>
</g>
<g id="作品">
</g>
<g id="noise" class="st1">
</g>
<g id="grid_system" class="st1">
</g>
<g id="三分法" class="st1">
</g>
<g id="golden_ratio_grid" class="st1">
</g>
<g id="單位" class="st1">
</g>
</svg>
