<?xml version="1.0" encoding="utf-8"?>
<!-- Generator: Adobe Illustrator 21.0.0, SVG Export Plug-In . SVG Version: 6.00 Build 0)  -->
<svg version="1.1" xmlns="http://www.w3.org/2000/svg" xmlns:xlink="http://www.w3.org/1999/xlink" x="0px" y="0px"
	 viewBox="0 0 870 180" style="enable-background:new 0 0 870 180;" xml:space="preserve">
<style type="text/css">
	.st0{fill:#2E2E2E;}
	.st1{fill:#2456D8;}
</style>
<g id="P">
	
		<image style="overflow:visible;enable-background:new    ;" width="912" height="180" xlink:href="C85840E7.jpg"  transform="matrix(1 0 0 1 -8184.0166 -8184)">
	</image>
	<path class="st0" d="M78,0H0v180h78v-36c39.8,0,72-32.2,72-72S117.8,0,78,0z"/>
</g>
<g id="O">
	<circle class="st0" cx="318" cy="90" r="90"/>
</g>
<g id="R">
	<path class="st1" d="M552,0h-66v132h66c36.5,0,66-29.5,66-66S588.5,0,552,0z"/>
	<polygon class="st0" points="486,180 618,180 486,0 	"/>
</g>
<g id="T">
	<polygon class="st0" points="696,0 696,60 744,60 744,180 747,180 819,180 822,180 822,60 870,60 870,0 	"/>
	<rect x="744" y="60" class="st1" width="78" height="120"/>
</g>
</svg>
