<?xml version="1.0" encoding="utf-8"?>
<!-- Generator: Adobe Illustrator 21.0.0, SVG Export Plug-In . SVG Version: 6.00 Build 0)  -->
<svg version="1.1" id="圖層_1" xmlns="http://www.w3.org/2000/svg" xmlns:xlink="http://www.w3.org/1999/xlink" x="0px" y="0px"
	 viewBox="0 0 718 120" style="enable-background:new 0 0 718 120;" xml:space="preserve">
<style type="text/css">
	.st0{fill:#2E2E2E;}
	.st1{fill:#2456D8;}
</style>
<g id="P">
	<path class="st0" d="M52,0H0v120h52V96c26.5,0,48-21.5,48-48S78.5,0,52,0z"/>
</g>
<g id="O">
	<g>
		<circle class="st0" cx="256" cy="60" r="60"/>
	</g>
</g>
<path class="st1" d="M462,0h-44v88h44c24.3,0,44-19.7,44-44S486.3,0,462,0z"/>
<polygon class="st0" points="418,0 418,0 418,120 506,120 506,120"/>
<g id="T">
	<polygon class="st0" points="718,0 684,0 684,0 636,0 636,0 602,0 602,40 636,40 636,120 684,120 684,40 718,40"/>
	<rect x="636" y="40" class="st1" width="48" height="80"/>
</g>
</svg>
