<?xml version="1.0" encoding="utf-8"?>
<!-- Generator: Adobe Illustrator 21.0.0, SVG Export Plug-In . SVG Version: 6.00 Build 0)  -->
<svg version="1.1" xmlns="http://www.w3.org/2000/svg" xmlns:xlink="http://www.w3.org/1999/xlink" x="0px" y="0px"
	 viewBox="0 0 768 144" style="enable-background:new 0 0 768 144;" xml:space="preserve">
<style type="text/css">
	.st0{fill:#2E2E2E;}
	.st1{fill:#2456D8;}
</style>
<g id="P_1_">
	<g id="P">
		<path class="st0" d="M62.4,0H0v144h62.4v-28.8c31.8,0,57.6-25.8,57.6-57.6S94.2,0,62.4,0z"/>
	</g>
</g>
<g id="O_1_">
	<g id="O">
		<g>
			<circle class="st0" cx="276" cy="72" r="72"/>
		</g>
	</g>
</g>
<g id="R">
	<path class="st1" d="M492,0h-52.8v105.6H492c29.2,0,52.8-23.6,52.8-52.8S521.2,0,492,0z"/>
	<polygon class="st0" points="439.2,0 439.2,0 439.2,144 544.8,144 544.8,144 	"/>
</g>
<g id="T">
	<polygon class="st0" points="768,0 727.2,0 727.2,0 669.6,0 669.6,0 628.8,0 628.8,48 669.6,48 669.6,144 727.2,144 727.2,48 
		768,48 	"/>
	<rect x="669.6" y="48" class="st1" width="57.6" height="96"/>
</g>
</svg>
