<?xml version="1.0" encoding="utf-8"?>
<!-- Generator: Adobe Illustrator 21.0.0, SVG Export Plug-In . SVG Version: 6.00 Build 0)  -->
<svg version="1.1" xmlns="http://www.w3.org/2000/svg" xmlns:xlink="http://www.w3.org/1999/xlink" x="0px" y="0px"
	 viewBox="0 0 712 120" style="enable-background:new 0 0 712 120;" xml:space="preserve">
<style type="text/css">
	.st0{fill:#2E2E2E;}
	.st1{fill:#2456D8;}
</style>
<g id="P">
	<path class="st0" d="M52,0H0v120h52V96c26.5,0,48-21.5,48-48C100,21.5,78.5,0,52,0z"/>
</g>
<g id="O">
	<g>
		<circle class="st0" cx="256" cy="60" r="60"/>
	</g>
</g>
<g id="R">
	<g>
		<path class="st1" d="M456,0h-44v88h44c24.3,0,44-19.7,44-44S480.3,0,456,0z"/>
		<polygon class="st0" points="412,0 412,0 412,120 492,120 492,120 		"/>
	</g>
</g>
<g id="T">
	<g>
		<polygon class="st0" points="712,0 678,0 678,0 630,0 630,0 596,0 596,40 630,40 630,120 678,120 678,40 712,40 		"/>
		<rect x="630" y="40" class="st1" width="48" height="80"/>
	</g>
</g>
</svg>
